# xmcd
#
# Track frame offsets: 
#        183
#        17228
#        29340
#        48753
#        65858
#        88278
#        102600
#        114920
#        134928
#        148805
#        169043
#        186193
#        208385
#        226943
#        248860
#
# Disc length: 3506 seconds
#
# Revision: 0
# Processed by: cddbd v1.5.1PL0 Copyright (c) Steve Scherf et al.
# Submitted via: ExactAudioCopy v0.95a5
#
DISCID=e80db00f
DTITLE=Various Artist - Instrumental Blues
DYEAR=1997
DGENRE=Blues
TTITLE0=Luther Allison - Strokes
TTITLE1=Ike Turner - Prancin'
TTITLE2=Lee Jackson - Lee's Boogie
TTITLE3=Buddy Guy - We're Ready
TTITLE4=Charlie Musselwhite - Christo Redemptor
TTITLE5=Roy Gaines - Okie Dokie Stomp
TTITLE6=King Kurtis - Soul Groove Part 1
TTITLE7=Joe Carter - Joe's Boogie
TTITLE8=Troyce Key And J.J. Malone - Jaywalk
TTITLE9=Jimmy Johnson - Pepper's Hangout
TTITLE10=Colin "Barrel House" Banagan - Little Joe From Chicago
TTITLE11=Magic Slim - Soul Blues
TTITLE12=U.P. Wilson With Paul Orta And The Kingpins - The Twister
TTITLE13=Big Walter "Shakey" Horton - Turkey Scratch
TTITLE14=Earl Hooker - The Srewdriver
EXTD=
EXTT0=
EXTT1=
EXTT2=
EXTT3=
EXTT4=
EXTT5=
EXTT6=
EXTT7=
EXTT8=
EXTT9=
EXTT10=
EXTT11=
EXTT12=
EXTT13=
EXTT14=
PLAYORDER=
